<?xml version="1.0" encoding="UTF-8"?>
<svg id="Layer_1" xmlns="http://www.w3.org/2000/svg" version="1.1" viewBox="0 0 34.8 52.2">
  <!-- Generator: Adobe Illustrator 29.0.0, SVG Export Plug-In . SVG Version: 2.1.0 Build 186)  -->
  <defs>
    <style>
      .st0 {
        fill-opacity: 0;
      }

      .st0, .st1 {
        fill: #0271eb;
      }
    </style>
  </defs>
  <g id="icon-mobile-mediumblue">
    <g id="icon-mobile-mediumblue-2">
      <g id="Group_14845">
        <g id="Group_8560">
          <rect id="Rectangle_3297" class="st0" x="-8.6" width="52.2" height="52.2"/>
          <path id="Shape" class="st1" d="M28.9,52.2H6.1c-3.1,0-5.7-2.5-5.7-5.6V5.6c0-3.1,2.5-5.6,5.7-5.6h22.8c3.1,0,5.7,2.5,5.7,5.6v41c0,3.1-2.6,5.6-5.7,5.6ZM4.2,44.8v1.9c0,1,.9,1.9,1.9,1.9h22.8c1,0,1.9-.8,1.9-1.9v-1.9H4.2ZM4.2,11.2v29.8h26.6V11.2H4.2ZM6.1,3.7c-1,0-1.9.8-1.9,1.9v1.9h26.6v-1.9c0-1-.9-1.9-1.9-1.9,0,0-22.8,0-22.8,0Z"/>
        </g>
      </g>
    </g>
  </g>
</svg>