<?xml version="1.0" encoding="UTF-8"?>
<svg id="Layer_1" xmlns="http://www.w3.org/2000/svg" version="1.1" viewBox="0 0 52.2 37.2">
  <!-- Generator: Adobe Illustrator 29.0.0, SVG Export Plug-In . SVG Version: 2.1.0 Build 186)  -->
  <defs>
    <style>
      .st0 {
        fill: none;
      }

      .st1 {
        fill: #0271eb;
      }
    </style>
  </defs>
  <rect class="st0" y="-9.3" width="52.2" height="52.2"/>
  <g id="Icon-Internet-mediumblue">
    <g id="Icon-Internet-mediumblue-2">
      <g id="smb-i-internet">
        <g id="i-internet">
          <path id="Path_10" class="st1" d="M50.1,30.6l-5.4-5.7V1.3H7.3v23.7l-5.3,5.7c-.6.6-.9,1.4-.9,2.2,0,1.8,1.5,3.3,3.4,3.3h43.2c1.8,0,3.3-1.4,3.4-3.3,0-.8-.3-1.6-.9-2.2l-.1-.1ZM9.7,3.4h32.6v21H9.7V3.4ZM47.9,33.8H4.1c-.5-.1-.8-.6-.7-1.1,0-.2.1-.3.2-.5l5.5-5.8h33.9c1.4,1.5,5.2,5.5,5.5,5.8.3.4.2,1-.1,1.3-.1.1-.3.2-.5.2h0v.1Z"/>
          <path id="Path_10_-_Outline" class="st1" d="M47.6,36.3H4.4c-1.9,0-3.5-1.5-3.6-3.5,0-.9.3-1.7,1-2.3l5.3-5.6V1.1h37.9v23.8l5.3,5.6c.6.6,1,1.5,1,2.3,0,1.9-1.6,3.5-3.6,3.5h-.1ZM7.5,1.5v23.6l-5.4,5.7c-.5.5-.8,1.3-.8,2,0,1.7,1.4,3.1,3.1,3.1h43.2c1.7,0,3.1-1.4,3.1-3.1,0-.8-.3-1.5-.9-2l-5.4-5.7V1.5H7.5ZM47.9,34H4c-.4,0-.7-.4-.8-.7-.1-.4,0-.8.3-1.1l5.6-5.9h34.1c3.4,3.7,5.3,5.7,5.5,5.9.3.3.3.8.2,1.1-.2.4-.5.7-1,.7h0ZM4.1,33.6h43.8c.3,0,.5-.2.6-.4s0-.5,0-.7c-.2-.2-2.1-2.2-5.4-5.8H9.2l-5.4,5.7c-.2.2-.2.4-.2.7,0,.2.3.4.5.4h0v.1ZM42.5,24.6H9.5V3.2h33v21.4ZM9.9,24.2h32.2V3.6H9.9v20.6Z"/>
          <path id="Path_10_-_Outline-2" class="st1" d="M47.6,36.5H4.4c-2.1,0-3.8-1.6-3.8-3.7,0-.9.4-1.8,1-2.5l5.2-5.5V.8h38.3v24l5.3,5.5c.7.7,1,1.6,1,2.5,0,2.1-1.7,3.7-3.8,3.7h0ZM7.7,1.7v23.4l-5.5,5.8c-.5.5-.8,1.2-.8,1.9,0,1.6,1.3,2.9,2.9,2.8h43.2c1.6,0,2.9-1.3,2.9-2.8,0-.7-.3-1.4-.8-1.9l-5.5-5.8V1.7H7.7ZM47.9,34.2H4c-.5,0-.9-.4-1-.9s0-1,.3-1.3l5.6-5.9h34.4c3.4,3.7,5.3,5.7,5.5,6,.3.4.4.9.2,1.4s-.7.8-1.2.8h0l.1-.1ZM4.1,33.3h43.8c.2,0,.3-.1.4-.3v-.4c-.1-.2-1.2-1.3-5.4-5.7H9.3l-5.4,5.6c-.1.1-.2.3-.1.5,0,.1.2.3.3.3h0ZM42.7,24.8H9.3V3h33.5v21.9l-.1-.1ZM10.1,24h31.7V3.8H10.1v20.2Z"/>
          <path id="Path_10_-_Outline_-_Outline" class="st1" d="M47.6,36.8H4.4c-2.2,0-4-1.7-4-3.9,0-1,.4-1.9,1.1-2.6l5.2-5.5V.6h38.7v24.1l5.2,5.5c.7.7,1.1,1.7,1.1,2.7,0,2.2-1.8,3.9-4,3.9h-.1ZM7.1,1.1v23.8l-5.3,5.6c-.6.6-1,1.5-1,2.3,0,1.9,1.6,3.5,3.6,3.5h43.2c1.9,0,3.5-1.5,3.6-3.5,0-.9-.4-1.7-1-2.3l-5.3-5.6V1.1H7.1ZM47.6,35.9H4.4c-1.7,0-3.1-1.4-3.1-3.1,0-.8.3-1.5.8-2l5.4-5.7V1.5h37v23.6l5.4,5.7c.5.5.8,1.3.9,2,0,1.7-1.4,3.1-3.1,3.1h-.1ZM7.9,1.9v23.3l-5.5,5.9c-.5.5-.7,1.1-.7,1.7,0,1.5,1.2,2.6,2.7,2.6h43.2c1.5,0,2.7-1.2,2.7-2.6,0-.7-.3-1.3-.7-1.7l-5.6-5.9V1.9H7.9ZM47.9,34.5H4c-.5,0-1-.5-1.2-1s0-1.1.4-1.6l5.7-6h34.4l.2.2c3.4,3.6,5.3,5.6,5.5,5.8.4.4.5,1.1.3,1.6-.2.6-.8.9-1.4,1h0ZM4,34h43.8c.4,0,.8-.3,1-.7s.1-.8-.2-1.1c-.2-.2-2.1-2.2-5.5-5.8H9.1l-5.6,5.9c-.3.3-.4.7-.3,1.1.1.4.4.7.8.7h0v-.1ZM47.9,33.6H4.1c-.2,0-.4-.2-.5-.4,0-.2,0-.5.2-.7l5.5-5.7h33.7c4.2,4.5,5.2,5.6,5.4,5.8s.2.4,0,.7c0,.2-.3.4-.6.4h0l.1-.1ZM4.1,33.1h43.7s.1,0,.2-.2v-.2c-.1-.2-1.2-1.3-5.3-5.6H9.4l-5.3,5.6v.3s0,.1.1.1h-.1ZM42.9,25.1H9.1V2.7h33.9v22.3l-.1.1ZM9.5,24.6h33V3.2H9.5v21.4ZM42.1,24.2H9.9V3.6h32.1v20.6h.1ZM10.4,23.7h31.3V4H10.4v19.7Z"/>
        </g>
      </g>
    </g>
  </g>
</svg>