<svg id="SpectrumAR-logo" xmlns="http://www.w3.org/2000/svg" xmlns:xlink="http://www.w3.org/1999/xlink" width="943.69" height="127.425" viewBox="0 0 943.69 127.425">
  <defs>
    <clipPath id="clip-path">
      <rect id="Rectangle_419" data-name="Rectangle 419" width="606.786" height="126.767" fill="none"/>
    </clipPath>
  </defs>
  <g id="Group_863" data-name="Group 863" transform="translate(0)" clip-path="url(#clip-path)">
    <path id="Path_632" data-name="Path 632" d="M226.524,416.958q9.449,8.069,28.365,8.062,18.362,0,28.369-7.782,10.012-8.343,10.007-23.361a25.883,25.883,0,0,0-3.058-12.8,22.423,22.423,0,0,0-9.362-8.943,40.549,40.549,0,0,0-7.281-2.813c-3.414-1.04-20.375-5.668-22.09-6.126-9.453-2.3-15.454-5.451-15.5-11.043.491-10.811,10.57-11.678,16.133-11.678q8.618,0,13.629,3.617c5.986,4.662,5.317,10.58,5.317,10.58h18.878q-.563-13.906-10.012-22.538-9.181-7.787-26.145-7.787-18.081,0-27.532,7.508-9.456,7.795-9.453,21.411c.029,11.673,5.562,18.55,10.566,21.695,3.048,1.826,9.964,4.614,18.912,6.4L253.786,383c13.041,3.178,20.525,7.209,20.289,13.658-.14,3.891-1.479,6.867-4.45,8.9-2.711,1.859-7.32,3.063-13.065,3.063q-9.737,0-15.3-3.9-5.288-3.337-6.4-11.683H215.4q.838,15.856,11.124,23.92" transform="translate(-215.4 -324.35)" fill="#003057"/>
    <path id="Path_633" data-name="Path 633" d="M283.254,368.695c0-7.267-1.329-22.639-16.205-22.639-14.124,0-15.651,15-15.651,22.639,0,19.34,10.994,21.8,16.21,21.8,13.508,0,15.646-14.332,15.646-21.8M251.4,423.475a9.426,9.426,0,0,1-9.5,9.5h-9.5V363.383c1.1-18.517,7.835-33.273,35.959-34.279,12.164.154,20.987,4.994,26.207,11.091,5.591,7.267,7.985,16.3,7.985,27.662q0,17.6-8.384,28.5-8.387,10.633-21.522,10.624c-13.137,0-19.518-5.471-21.252-6.5,0,.635.01,22.986.01,22.986" transform="translate(-150.551 -306.21)" fill="#003057"/>
    <path id="Path_634" data-name="Path 634" d="M282.642,390.068c-4.816-.245-13.99-1.189-14.833-17.241l48.191,0c.01-.491,0-5.774.014-5.784-.332-12.093-3.231-21.113-8.9-27.874q-9.182-10.012-25.866-10.012-15.849,0-24.748,10.287-8.625,10.012-8.62,27.811,0,18.637,8.9,28.645,8.892,10.294,24.743,10.291,13.082,0,21.695-6.4c5.745-4.079,9.67-10.031,11.707-17.823l-16.744,0c-2.466,6.988-8.765,8.428-15.54,8.086m-.833-44.777c11.948-.159,13.807,10.012,14.182,15.016H267.627s-.241-14.751,14.183-15.016" transform="translate(-91.457 -305.988)" fill="#003057"/>
    <path id="Path_635" data-name="Path 635" d="M311.654,382h18.28s-4.965,24.19-32.579,24.19-34.408-22.162-34.408-36.721,2.586-39.432,33.335-40.3c28.413-.424,33.094,24.19,33.094,24.19H309.916s-1.888-8.322-13.474-8.057S281.83,356.44,281.83,366.78s2.572,23.284,15.435,23.284c12.232.371,13.311-6.241,14.39-8.062" transform="translate(-33.968 -305.985)" fill="#003057"/>
    <path id="Path_636" data-name="Path 636" d="M296.94,366.468h11.433l0-19.494h-11.4V334.462c0-3.438-1.912-9.458-9.179-9.458H277.778v81.763c0,8.529,3.3,13.629,10.464,13.629l8.7,0Z" transform="translate(22.619 -321.854)" fill="#003057"/>
    <path id="Path_637" data-name="Path 637" d="M303.788,403.462v-38.1q0-8.343,3.891-12.237t11.958-3.891h6.4v-19.75s-10.075-.241-17.38,1.95a36.547,36.547,0,0,0-12.377,6.116,30.048,30.048,0,0,0-8.76,11.818q-3.2,7.376-3.2,18.218v35.873Z" transform="translate(47.574 -304.781)" fill="#003057"/>
    <path id="Path_638" data-name="Path 638" d="M294.124,329.5h19.47v47.277s-.7,12.786,12.791,12.8c12.728,0,13.051-11.443,13.06-12.251V338.679s.66-9.174,9.1-9.174h10.1s-.014,43.492,0,43.91c-.135,2.394,2.552,31.471-32.256,31.356-34.486,0-32.039-29.42-32.261-31.153Z" transform="translate(84.992 -304.679)" fill="#003057"/>
    <path id="Path_639" data-name="Path 639" d="M373.5,405.127H354.215V357.614c0-5.476-2.259-12.858-13.142-12.858-10.676,0-12.848,8.384-12.848,12.858v47.513H308.653v-43.6c0-12.666,3.761-20.4,9.925-25.432,6.107-4.975,13.927-6.612,21.936-6.988a56.643,56.643,0,0,1,12.579,1.4,26.5,26.5,0,0,1,11.182,5.591,24.768,24.768,0,0,1,9.921-5.172,46.988,46.988,0,0,1,11.88-1.815c23.862-.125,33.441,10.8,34.235,14.308l0,61.715H409.268c-2.788,0-9.5-1.9-9.5-9.5V357.614c.048-5.389-1.84-12.858-13.142-12.858-11.178,0-13.133,8.384-13.133,12.858Z" transform="translate(140.431 -306.21)" fill="#003057"/>
    <path id="Path_640" data-name="Path 640" d="M332.965,332.068v61.657L373.586,362.9Z" transform="translate(233.2 -294.899)" fill="#0099d8"/>
  </g>
  <line id="Line_2" data-name="Line 2" y2="125.402" transform="translate(647.238 2.023)" fill="none" stroke="#083057" stroke-width="1"/>
  <text id="Authorized_RESELLER" data-name="Authorized
RESELLER" transform="translate(687.69 54.271)" fill="#003057" font-size="39" font-family="Helvetica-Bold, Helvetica" font-weight="700"><tspan x="0" y="0">AUTHORIZED</tspan><tspan x="0" y="39">RESELLER</tspan></text>
</svg>
